<svg xmlns="http://www.w3.org/2000/svg" xmlns:xlink="http://www.w3.org/1999/xlink" width="40" zoomAndPan="magnify" viewBox="0 0 30 30.000001" height="40" preserveAspectRatio="xMidYMid meet" version="1.0"><defs><clipPath id="2073eff327"><path d="M 2.914062 2.429688 L 26.867188 2.429688 L 26.867188 26.382812 L 2.914062 26.382812 Z M 2.914062 2.429688 " clip-rule="nonzero"/></clipPath></defs><g clip-path="url(#2073eff327)"><path fill="#028cff" d="M 27.082031 14.515625 C 27.082031 21.1875 21.671875 26.597656 15 26.597656 C 8.324219 26.597656 2.914062 21.1875 2.914062 14.515625 C 2.914062 7.839844 8.324219 2.429688 15 2.429688 C 21.671875 2.429688 27.082031 7.839844 27.082031 14.515625 " fill-opacity="1" fill-rule="nonzero"/></g><path fill="#ececea" d="M 22.847656 7.988281 C 20.964844 5.753906 18.148438 4.332031 15 4.332031 C 9.335938 4.332031 4.742188 8.921875 4.742188 14.585938 C 4.742188 18.640625 7.097656 22.144531 10.511719 23.8125 C 11.867188 24.472656 13.390625 24.84375 15 24.84375 C 20.664062 24.84375 25.253906 20.25 25.253906 14.585938 C 25.253906 12.074219 24.347656 9.769531 22.847656 7.988281 " fill-opacity="1" fill-rule="nonzero"/><path fill="#015ab3" d="M 15.207031 8.371094 C 15.207031 8.425781 15.113281 8.472656 15 8.472656 C 14.882812 8.472656 14.792969 8.425781 14.792969 8.371094 L 14.792969 5.5 C 14.792969 5.441406 14.882812 5.398438 15 5.398438 C 15.113281 5.398438 15.207031 5.441406 15.207031 5.5 L 15.207031 8.371094 " fill-opacity="1" fill-rule="nonzero"/><path fill="#015ab3" d="M 15.207031 23.871094 C 15.207031 23.925781 15.113281 23.972656 15 23.972656 C 14.882812 23.972656 14.792969 23.925781 14.792969 23.871094 L 14.792969 21 C 14.792969 20.941406 14.882812 20.898438 15 20.898438 C 15.113281 20.898438 15.207031 20.941406 15.207031 21 L 15.207031 23.871094 " fill-opacity="1" fill-rule="nonzero"/><path fill="#015ab3" d="M 21.40625 14.890625 C 21.351562 14.890625 21.304688 14.800781 21.304688 14.683594 C 21.304688 14.570312 21.351562 14.476562 21.40625 14.476562 L 24.28125 14.476562 C 24.335938 14.476562 24.382812 14.570312 24.382812 14.683594 C 24.382812 14.800781 24.335938 14.890625 24.28125 14.890625 L 21.40625 14.890625 " fill-opacity="1" fill-rule="nonzero"/><path fill="#ffde59" d="M 14.46875 14.609375 L 14.738281 15.097656 L 8.542969 18.519531 L 7.902344 18.570312 L 8.273438 18.03125 L 14.46875 14.609375 " fill-opacity="1" fill-rule="nonzero"/><path fill="#015ab3" d="M 5.757812 14.890625 C 5.703125 14.890625 5.65625 14.800781 5.65625 14.683594 C 5.65625 14.570312 5.703125 14.476562 5.757812 14.476562 L 8.632812 14.476562 C 8.6875 14.476562 8.734375 14.570312 8.734375 14.683594 C 8.734375 14.800781 8.6875 14.890625 8.632812 14.890625 L 5.757812 14.890625 " fill-opacity="1" fill-rule="nonzero"/><path fill="#015ab3" d="M 14.710938 14.117188 C 15.257812 14.117188 15.699219 14.5625 15.699219 15.109375 C 15.699219 15.65625 15.257812 16.097656 14.710938 16.097656 C 14.164062 16.097656 13.71875 15.65625 13.71875 15.109375 C 13.71875 14.5625 14.164062 14.117188 14.710938 14.117188 " fill-opacity="1" fill-rule="nonzero"/><path fill="#015ab3" d="M 14.78125 14.371094 L 13.949219 15.109375 L 11.433594 12.226562 L 11.433594 11.324219 L 12.269531 11.488281 L 14.78125 14.371094 " fill-opacity="1" fill-rule="nonzero"/><path fill="#015ab3" d="M 15.179688 15.152344 L 14.710938 14.441406 L 21.460938 9.988281 L 22.246094 9.960938 L 21.933594 10.703125 L 15.179688 15.152344 " fill-opacity="1" fill-rule="nonzero"/></svg>