<svg xmlns="http://www.w3.org/2000/svg" xmlns:xlink="http://www.w3.org/1999/xlink" width="40" zoomAndPan="magnify" viewBox="0 0 30 30.000001" height="40" preserveAspectRatio="xMidYMid meet" version="1.0"><defs><clipPath id="a1f5dafd13"><path d="M 10 9 L 20.152344 9 L 20.152344 18.945312 L 10 18.945312 Z M 10 9 " clip-rule="nonzero"/></clipPath><clipPath id="183e9aa36a"><path d="M 11 10 L 20 10 L 20 18.945312 L 11 18.945312 Z M 11 10 " clip-rule="nonzero"/></clipPath><clipPath id="ee08329624"><path d="M 12 11 L 20 11 L 20 18.945312 L 12 18.945312 Z M 12 11 " clip-rule="nonzero"/></clipPath><clipPath id="75ae7f4d1e"><path d="M 3 2 L 26.613281 2 L 26.613281 26.128906 L 3 26.128906 Z M 3 2 " clip-rule="nonzero"/></clipPath><clipPath id="46a4946cb5"><path d="M 6 6 L 26.613281 6 L 26.613281 26 L 6 26 Z M 6 6 " clip-rule="nonzero"/></clipPath></defs><g clip-path="url(#a1f5dafd13)"><path fill="#ffe66e" d="M 20.152344 14.101562 C 20.152344 14.417969 20.121094 14.734375 20.058594 15.046875 C 20 15.355469 19.90625 15.660156 19.785156 15.953125 C 19.664062 16.246094 19.511719 16.527344 19.335938 16.789062 C 19.160156 17.054688 18.960938 17.300781 18.734375 17.523438 C 18.507812 17.75 18.265625 17.949219 18 18.128906 C 17.734375 18.304688 17.457031 18.453125 17.164062 18.574219 C 16.871094 18.695312 16.566406 18.789062 16.253906 18.851562 C 15.941406 18.914062 15.628906 18.945312 15.308594 18.945312 C 14.992188 18.945312 14.675781 18.914062 14.363281 18.851562 C 14.054688 18.789062 13.75 18.695312 13.457031 18.574219 C 13.164062 18.453125 12.882812 18.304688 12.617188 18.128906 C 12.355469 17.949219 12.109375 17.75 11.886719 17.523438 C 11.660156 17.300781 11.460938 17.054688 11.28125 16.789062 C 11.105469 16.527344 10.957031 16.246094 10.835938 15.953125 C 10.714844 15.660156 10.621094 15.355469 10.558594 15.046875 C 10.496094 14.734375 10.464844 14.417969 10.464844 14.101562 C 10.464844 13.78125 10.496094 13.46875 10.558594 13.15625 C 10.621094 12.84375 10.714844 12.539062 10.835938 12.246094 C 10.957031 11.953125 11.105469 11.671875 11.28125 11.410156 C 11.460938 11.144531 11.660156 10.898438 11.886719 10.675781 C 12.109375 10.449219 12.355469 10.25 12.617188 10.074219 C 12.882812 9.894531 13.164062 9.746094 13.457031 9.625 C 13.75 9.503906 14.054688 9.410156 14.363281 9.347656 C 14.675781 9.289062 14.992188 9.257812 15.308594 9.257812 C 15.628906 9.257812 15.941406 9.289062 16.253906 9.347656 C 16.566406 9.410156 16.871094 9.503906 17.164062 9.625 C 17.457031 9.746094 17.734375 9.894531 18 10.074219 C 18.265625 10.25 18.507812 10.449219 18.734375 10.675781 C 18.960938 10.898438 19.160156 11.144531 19.335938 11.410156 C 19.511719 11.671875 19.664062 11.953125 19.785156 12.246094 C 19.90625 12.539062 20 12.84375 20.058594 13.15625 C 20.121094 13.46875 20.152344 13.78125 20.152344 14.101562 Z M 20.152344 14.101562 " fill-opacity="1" fill-rule="nonzero"/></g><g clip-path="url(#183e9aa36a)"><path fill="#fff6a0" d="M 18.734375 10.675781 L 11.886719 17.523438 C 12.472656 18.113281 13.175781 18.519531 13.921875 18.742188 L 19.953125 12.710938 C 19.730469 11.96875 19.324219 11.261719 18.734375 10.675781 Z M 18.734375 10.675781 " fill-opacity="1" fill-rule="nonzero"/><path fill="#fac841" d="M 19.394531 14.101562 C 19.394531 14.367188 19.371094 14.632812 19.316406 14.898438 C 19.265625 15.160156 19.1875 15.417969 19.085938 15.664062 C 18.984375 15.910156 18.855469 16.148438 18.707031 16.371094 C 18.558594 16.59375 18.390625 16.800781 18.199219 16.988281 C 18.007812 17.179688 17.804688 17.347656 17.582031 17.496094 C 17.355469 17.648438 17.121094 17.773438 16.875 17.875 C 16.625 17.976562 16.371094 18.054688 16.105469 18.109375 C 15.84375 18.160156 15.578125 18.1875 15.308594 18.1875 C 15.042969 18.1875 14.777344 18.160156 14.511719 18.109375 C 14.25 18.054688 13.992188 17.976562 13.746094 17.875 C 13.496094 17.773438 13.261719 17.648438 13.039062 17.496094 C 12.816406 17.347656 12.609375 17.179688 12.421875 16.988281 C 12.230469 16.800781 12.0625 16.59375 11.910156 16.371094 C 11.761719 16.148438 11.636719 15.910156 11.535156 15.664062 C 11.429688 15.417969 11.355469 15.160156 11.300781 14.898438 C 11.25 14.632812 11.222656 14.367188 11.222656 14.101562 C 11.222656 13.832031 11.25 13.566406 11.300781 13.304688 C 11.355469 13.039062 11.429688 12.785156 11.535156 12.535156 C 11.636719 12.289062 11.761719 12.050781 11.910156 11.828125 C 12.0625 11.605469 12.230469 11.398438 12.421875 11.210938 C 12.609375 11.019531 12.816406 10.851562 13.039062 10.703125 C 13.261719 10.554688 13.496094 10.425781 13.746094 10.324219 C 13.992188 10.222656 14.25 10.144531 14.511719 10.09375 C 14.777344 10.039062 15.042969 10.011719 15.308594 10.011719 C 15.578125 10.011719 15.84375 10.039062 16.105469 10.09375 C 16.371094 10.144531 16.625 10.222656 16.875 10.324219 C 17.121094 10.425781 17.355469 10.554688 17.582031 10.703125 C 17.804688 10.851562 18.007812 11.019531 18.199219 11.210938 C 18.390625 11.398438 18.558594 11.605469 18.707031 11.828125 C 18.855469 12.050781 18.984375 12.289062 19.085938 12.535156 C 19.1875 12.785156 19.265625 13.039062 19.316406 13.304688 C 19.371094 13.566406 19.394531 13.832031 19.394531 14.101562 Z M 19.394531 14.101562 " fill-opacity="1" fill-rule="nonzero"/></g><g clip-path="url(#ee08329624)"><path fill="#fcd24d" d="M 12.417969 16.988281 C 14.015625 18.585938 16.601562 18.585938 18.199219 16.988281 C 19.796875 15.394531 19.796875 12.804688 18.199219 11.210938 Z M 12.417969 16.988281 " fill-opacity="1" fill-rule="nonzero"/></g><path fill="#fabe32" d="M 12.742188 11.53125 C 14.28125 9.988281 16.75 9.9375 18.355469 11.375 C 18.304688 11.320312 18.253906 11.265625 18.199219 11.210938 C 16.605469 9.613281 14.015625 9.613281 12.421875 11.210938 C 10.824219 12.804688 10.824219 15.394531 12.421875 16.988281 C 12.472656 17.042969 12.527344 17.09375 12.585938 17.144531 C 11.148438 15.542969 11.199219 13.074219 12.742188 11.53125 Z M 12.742188 11.53125 " fill-opacity="1" fill-rule="nonzero"/><path fill="#fff6a0" d="M 16.101562 10.089844 L 16.722656 9.46875 C 17.242188 9.625 17.722656 9.867188 18.152344 10.179688 L 17.609375 10.722656 C 17.164062 10.417969 16.652344 10.199219 16.101562 10.089844 Z M 16.101562 10.089844 " fill-opacity="1" fill-rule="nonzero"/><path fill="#fff6a0" d="M 11.933594 16.398438 L 11.390625 16.941406 C 11.078125 16.515625 10.835938 16.03125 10.675781 15.515625 L 11.300781 14.890625 C 11.410156 15.441406 11.628906 15.953125 11.933594 16.398438 Z M 11.933594 16.398438 " fill-opacity="1" fill-rule="nonzero"/><path fill="#fff6a0" d="M 12.097656 10.890625 C 10.242188 12.746094 10.210938 15.730469 11.996094 17.628906 C 11.957031 17.59375 11.921875 17.5625 11.886719 17.523438 C 9.992188 15.632812 9.992188 12.566406 11.886719 10.675781 C 13.777344 8.785156 16.84375 8.785156 18.734375 10.675781 C 18.769531 10.710938 18.804688 10.75 18.839844 10.785156 C 16.941406 9 13.953125 9.035156 12.097656 10.890625 Z M 12.097656 10.890625 " fill-opacity="1" fill-rule="nonzero"/><path fill="#f5b932" d="M 17.429688 13.039062 C 17.085938 13.039062 16.773438 13.15625 16.519531 13.347656 L 16.519531 13.039062 L 15.914062 13.039062 L 15.914062 17.277344 L 16.519531 17.277344 L 16.519531 15.761719 C 16.773438 15.953125 17.085938 16.066406 17.429688 16.066406 C 18.261719 16.066406 18.941406 15.386719 18.941406 14.554688 C 18.941406 13.71875 18.261719 13.039062 17.429688 13.039062 Z M 17.429688 15.460938 C 16.929688 15.460938 16.519531 15.054688 16.519531 14.554688 C 16.519531 14.054688 16.929688 13.644531 17.429688 13.644531 C 17.929688 13.644531 18.335938 14.054688 18.335938 14.554688 C 18.335938 15.054688 17.929688 15.460938 17.429688 15.460938 Z M 17.429688 15.460938 " fill-opacity="1" fill-rule="nonzero"/><path fill="#f5b932" d="M 13.644531 14.25 L 15.007812 16.066406 L 15.765625 16.066406 L 14.394531 14.242188 C 14.996094 14.171875 15.460938 13.660156 15.460938 13.039062 C 15.460938 12.371094 14.917969 11.828125 14.25 11.828125 L 13.039062 11.828125 L 13.039062 16.066406 L 13.644531 16.066406 Z M 13.644531 12.433594 L 14.25 12.433594 C 14.585938 12.433594 14.855469 12.707031 14.855469 13.039062 C 14.855469 13.375 14.585938 13.644531 14.25 13.644531 L 13.644531 13.644531 Z M 13.644531 12.433594 " fill-opacity="1" fill-rule="nonzero"/><path fill="#fff082" d="M 17.125 13.039062 C 16.785156 13.039062 16.472656 13.15625 16.21875 13.347656 L 16.21875 13.039062 L 15.613281 13.039062 L 15.613281 17.277344 L 16.21875 17.277344 L 16.21875 15.761719 C 16.472656 15.953125 16.785156 16.066406 17.125 16.066406 C 17.960938 16.066406 18.640625 15.386719 18.640625 14.554688 C 18.640625 13.71875 17.960938 13.039062 17.125 13.039062 Z M 17.125 15.460938 C 16.625 15.460938 16.21875 15.054688 16.21875 14.554688 C 16.21875 14.054688 16.625 13.644531 17.125 13.644531 C 17.628906 13.644531 18.035156 14.054688 18.035156 14.554688 C 18.035156 15.054688 17.628906 15.460938 17.125 15.460938 Z M 17.125 15.460938 " fill-opacity="1" fill-rule="nonzero"/><path fill="#fff082" d="M 13.34375 14.25 L 14.703125 16.066406 L 15.460938 16.066406 L 14.089844 14.242188 C 14.691406 14.171875 15.160156 13.660156 15.160156 13.039062 C 15.160156 12.371094 14.613281 11.828125 13.949219 11.828125 L 12.738281 11.828125 L 12.738281 16.066406 L 13.34375 16.066406 Z M 13.34375 12.433594 L 13.949219 12.433594 C 14.28125 12.433594 14.554688 12.707031 14.554688 13.039062 C 14.554688 13.375 14.28125 13.644531 13.949219 13.644531 L 13.34375 13.644531 Z M 13.34375 12.433594 " fill-opacity="1" fill-rule="nonzero"/><g clip-path="url(#75ae7f4d1e)"><path fill="#ffe66e" d="M 26.613281 14.367188 C 26.613281 15.136719 26.539062 15.902344 26.386719 16.660156 C 26.234375 17.417969 26.011719 18.152344 25.71875 18.867188 C 25.421875 19.582031 25.058594 20.257812 24.628906 20.902344 C 24.203125 21.542969 23.714844 22.136719 23.167969 22.683594 C 22.621094 23.230469 22.027344 23.71875 21.386719 24.148438 C 20.742188 24.574219 20.066406 24.9375 19.351562 25.234375 C 18.636719 25.527344 17.902344 25.753906 17.144531 25.902344 C 16.386719 26.054688 15.621094 26.128906 14.851562 26.128906 C 14.078125 26.128906 13.3125 26.054688 12.554688 25.902344 C 11.796875 25.753906 11.0625 25.527344 10.347656 25.234375 C 9.636719 24.9375 8.957031 24.574219 8.316406 24.148438 C 7.671875 23.71875 7.078125 23.230469 6.53125 22.683594 C 5.988281 22.136719 5.5 21.542969 5.070312 20.902344 C 4.640625 20.257812 4.277344 19.582031 3.984375 18.867188 C 3.6875 18.152344 3.464844 17.417969 3.3125 16.660156 C 3.164062 15.902344 3.085938 15.136719 3.085938 14.367188 C 3.085938 13.59375 3.164062 12.828125 3.3125 12.070312 C 3.464844 11.3125 3.6875 10.578125 3.984375 9.863281 C 4.277344 9.152344 4.640625 8.472656 5.070312 7.832031 C 5.5 7.1875 5.988281 6.59375 6.53125 6.046875 C 7.078125 5.503906 7.671875 5.015625 8.316406 4.585938 C 8.957031 4.15625 9.636719 3.792969 10.347656 3.5 C 11.0625 3.203125 11.796875 2.980469 12.554688 2.828125 C 13.3125 2.679688 14.078125 2.601562 14.851562 2.601562 C 15.621094 2.601562 16.386719 2.679688 17.144531 2.828125 C 17.902344 2.980469 18.636719 3.203125 19.351562 3.5 C 20.066406 3.792969 20.742188 4.15625 21.386719 4.585938 C 22.027344 5.015625 22.621094 5.503906 23.167969 6.046875 C 23.714844 6.59375 24.203125 7.1875 24.628906 7.832031 C 25.058594 8.472656 25.421875 9.152344 25.71875 9.863281 C 26.011719 10.578125 26.234375 11.3125 26.386719 12.070312 C 26.539062 12.828125 26.613281 13.59375 26.613281 14.367188 Z M 26.613281 14.367188 " fill-opacity="1" fill-rule="nonzero"/></g><g clip-path="url(#46a4946cb5)"><path fill="#fff6a0" d="M 23.167969 6.050781 L 6.53125 22.683594 C 7.960938 24.113281 9.671875 25.097656 11.480469 25.636719 L 26.121094 10.996094 C 25.582031 9.1875 24.597656 7.476562 23.167969 6.046875 Z M 23.167969 6.050781 " fill-opacity="1" fill-rule="nonzero"/></g><path fill="#fac841" d="M 24.773438 14.367188 C 24.773438 15.019531 24.710938 15.664062 24.585938 16.300781 C 24.457031 16.941406 24.269531 17.5625 24.019531 18.164062 C 23.769531 18.765625 23.464844 19.339844 23.101562 19.878906 C 22.742188 20.421875 22.328125 20.921875 21.867188 21.382812 C 21.40625 21.84375 20.90625 22.257812 20.363281 22.617188 C 19.820312 22.980469 19.25 23.285156 18.648438 23.535156 C 18.046875 23.785156 17.425781 23.972656 16.785156 24.101562 C 16.148438 24.226562 15.5 24.292969 14.851562 24.292969 C 14.199219 24.292969 13.554688 24.226562 12.914062 24.101562 C 12.273438 23.972656 11.652344 23.785156 11.050781 23.535156 C 10.449219 23.285156 9.878906 22.980469 9.335938 22.617188 C 8.792969 22.257812 8.292969 21.84375 7.832031 21.382812 C 7.371094 20.921875 6.960938 20.421875 6.597656 19.878906 C 6.234375 19.339844 5.929688 18.765625 5.679688 18.164062 C 5.429688 17.5625 5.242188 16.941406 5.117188 16.300781 C 4.988281 15.664062 4.925781 15.019531 4.925781 14.367188 C 4.925781 13.714844 4.988281 13.070312 5.117188 12.429688 C 5.242188 11.789062 5.429688 11.171875 5.679688 10.566406 C 5.929688 9.964844 6.234375 9.394531 6.597656 8.851562 C 6.960938 8.308594 7.371094 7.808594 7.832031 7.347656 C 8.292969 6.886719 8.792969 6.476562 9.335938 6.113281 C 9.878906 5.75 10.449219 5.445312 11.050781 5.195312 C 11.652344 4.949219 12.273438 4.757812 12.914062 4.632812 C 13.554688 4.503906 14.199219 4.441406 14.851562 4.441406 C 15.5 4.441406 16.148438 4.503906 16.785156 4.632812 C 17.425781 4.757812 18.046875 4.949219 18.648438 5.195312 C 19.25 5.445312 19.820312 5.75 20.363281 6.113281 C 20.90625 6.476562 21.40625 6.886719 21.867188 7.347656 C 22.328125 7.808594 22.742188 8.308594 23.101562 8.851562 C 23.464844 9.394531 23.769531 9.964844 24.019531 10.566406 C 24.269531 11.171875 24.457031 11.789062 24.585938 12.429688 C 24.710938 13.070312 24.773438 13.714844 24.773438 14.367188 Z M 24.773438 14.367188 " fill-opacity="1" fill-rule="nonzero"/><path fill="#fcd24d" d="M 7.832031 21.382812 C 11.707031 25.261719 17.992188 25.261719 21.867188 21.382812 C 25.742188 17.507812 25.742188 11.222656 21.867188 7.347656 Z M 7.832031 21.382812 " fill-opacity="1" fill-rule="nonzero"/><path fill="#fabe32" d="M 8.613281 8.128906 C 12.355469 4.382812 18.347656 4.257812 22.246094 7.75 C 22.125 7.613281 22 7.480469 21.867188 7.347656 C 17.992188 3.472656 11.707031 3.472656 7.832031 7.347656 C 3.957031 11.222656 3.957031 17.507812 7.832031 21.382812 C 7.964844 21.515625 8.097656 21.640625 8.234375 21.761719 C 4.742188 17.867188 4.867188 11.875 8.613281 8.128906 Z M 8.613281 8.128906 " fill-opacity="1" fill-rule="nonzero"/><path fill="#fff6a0" d="M 16.769531 4.628906 L 18.285156 3.113281 C 19.546875 3.496094 20.714844 4.089844 21.753906 4.84375 L 20.4375 6.160156 C 19.347656 5.421875 18.109375 4.890625 16.769531 4.628906 Z M 16.769531 4.628906 " fill-opacity="1" fill-rule="nonzero"/><path fill="#fff6a0" d="M 6.648438 19.953125 L 5.328125 21.269531 C 4.574219 20.230469 3.984375 19.058594 3.597656 17.800781 L 5.113281 16.289062 C 5.375 17.625 5.90625 18.867188 6.648438 19.953125 Z M 6.648438 19.953125 " fill-opacity="1" fill-rule="nonzero"/><path fill="#fff6a0" d="M 7.050781 6.570312 C 2.546875 11.074219 2.464844 18.328125 6.796875 22.9375 C 6.710938 22.855469 6.621094 22.769531 6.53125 22.683594 C 1.9375 18.089844 1.9375 10.640625 6.53125 6.050781 C 11.125 1.457031 18.574219 1.457031 23.167969 6.050781 C 23.253906 6.136719 23.335938 6.226562 23.421875 6.316406 C 18.808594 1.980469 11.558594 2.0625 7.050781 6.570312 Z M 7.050781 6.570312 " fill-opacity="1" fill-rule="nonzero"/><path fill="#f5b932" d="M 19.996094 11.792969 C 19.167969 11.792969 18.40625 12.070312 17.789062 12.535156 L 17.789062 11.792969 L 16.320312 11.792969 L 16.320312 22.085938 L 17.789062 22.085938 L 17.789062 18.402344 C 18.40625 18.867188 19.167969 19.144531 19.996094 19.144531 C 22.023438 19.144531 23.671875 17.496094 23.671875 15.46875 C 23.671875 13.441406 22.023438 11.792969 19.996094 11.792969 Z M 19.996094 17.675781 C 18.78125 17.675781 17.789062 16.6875 17.789062 15.46875 C 17.789062 14.253906 18.78125 13.261719 19.996094 13.261719 C 21.214844 13.261719 22.203125 14.253906 22.203125 15.46875 C 22.203125 16.6875 21.214844 17.675781 19.996094 17.675781 Z M 19.996094 17.675781 " fill-opacity="1" fill-rule="nonzero"/><path fill="#f5b932" d="M 10.804688 14.734375 L 14.113281 19.144531 L 15.953125 19.144531 L 12.628906 14.710938 C 14.085938 14.535156 15.21875 13.296875 15.21875 11.792969 C 15.21875 10.171875 13.898438 8.851562 12.277344 8.851562 L 9.335938 8.851562 L 9.335938 19.144531 L 10.804688 19.144531 Z M 10.804688 10.324219 L 12.277344 10.324219 C 13.089844 10.324219 13.746094 10.980469 13.746094 11.792969 C 13.746094 12.605469 13.089844 13.261719 12.277344 13.261719 L 10.804688 13.261719 Z M 10.804688 10.324219 " fill-opacity="1" fill-rule="nonzero"/><path fill="#fff082" d="M 19.261719 11.792969 C 18.433594 11.792969 17.671875 12.070312 17.054688 12.535156 L 17.054688 11.792969 L 15.585938 11.792969 L 15.585938 22.085938 L 17.054688 22.085938 L 17.054688 18.402344 C 17.671875 18.867188 18.433594 19.144531 19.261719 19.144531 C 21.289062 19.144531 22.9375 17.496094 22.9375 15.46875 C 22.9375 13.441406 21.289062 11.792969 19.261719 11.792969 Z M 19.261719 17.675781 C 18.042969 17.675781 17.054688 16.6875 17.054688 15.46875 C 17.054688 14.253906 18.042969 13.261719 19.261719 13.261719 C 20.476562 13.261719 21.464844 14.253906 21.464844 15.46875 C 21.464844 16.6875 20.476562 17.675781 19.261719 17.675781 Z M 19.261719 17.675781 " fill-opacity="1" fill-rule="nonzero"/><path fill="#fff082" d="M 10.070312 14.734375 L 13.378906 19.144531 L 15.21875 19.144531 L 11.890625 14.710938 C 13.347656 14.535156 14.484375 13.296875 14.484375 11.792969 C 14.484375 10.171875 13.164062 8.851562 11.542969 8.851562 L 8.601562 8.851562 L 8.601562 19.144531 L 10.070312 19.144531 Z M 10.070312 10.324219 L 11.542969 10.324219 C 12.351562 10.324219 13.011719 10.980469 13.011719 11.792969 C 13.011719 12.605469 12.351562 13.261719 11.542969 13.261719 L 10.070312 13.261719 Z M 10.070312 10.324219 " fill-opacity="1" fill-rule="nonzero"/></svg>