<svg xmlns="http://www.w3.org/2000/svg" xmlns:xlink="http://www.w3.org/1999/xlink" width="70" zoomAndPan="magnify" viewBox="0 0 52.5 52.499999" height="70" preserveAspectRatio="xMidYMid meet" version="1.0"><defs><clipPath id="afc30541b0"><path d="M 2.601562 2.601562 L 49.40625 2.601562 L 49.40625 49.40625 L 2.601562 49.40625 Z M 2.601562 2.601562 " clip-rule="nonzero"/></clipPath></defs><g clip-path="url(#afc30541b0)"><path fill="#ffffff" d="M 26.003906 2.601562 C 13.09375 2.601562 2.601562 13.09375 2.601562 26.003906 C 2.601562 38.914062 13.09375 49.40625 26.003906 49.40625 C 38.914062 49.40625 49.40625 38.914062 49.40625 26.003906 C 49.40625 13.09375 38.914062 2.601562 26.003906 2.601562 Z M 26.003906 41.605469 C 23.855469 41.605469 22.101562 39.847656 22.101562 37.703125 C 22.101562 35.558594 23.855469 33.804688 26.003906 33.804688 C 28.148438 33.804688 29.902344 35.558594 29.902344 37.703125 C 29.902344 39.847656 28.148438 41.605469 26.003906 41.605469 Z M 29.902344 26.003906 C 29.902344 28.148438 28.148438 29.902344 26.003906 29.902344 C 23.855469 29.902344 22.101562 28.148438 22.101562 26.003906 L 22.101562 14.300781 C 22.101562 12.15625 23.855469 10.402344 26.003906 10.402344 C 28.148438 10.402344 29.902344 12.15625 29.902344 14.300781 Z M 29.902344 26.003906 " fill-opacity="1" fill-rule="evenodd"/></g></svg>