<svg xmlns="http://www.w3.org/2000/svg" xmlns:xlink="http://www.w3.org/1999/xlink" width="70" zoomAndPan="magnify" viewBox="0 0 52.5 52.499999" height="70" preserveAspectRatio="xMidYMid meet" version="1.0"><defs><clipPath id="e2a3c49e22"><path d="M 0 0 L 52.003906 0 L 52.003906 52.003906 L 0 52.003906 Z M 0 0 " clip-rule="nonzero"/></clipPath><clipPath id="07c4df8090"><path d="M 2.042969 2.042969 L 50 2.042969 L 50 50 L 2.042969 50 Z M 2.042969 2.042969 " clip-rule="nonzero"/></clipPath></defs><g clip-path="url(#e2a3c49e22)"><path fill="#ffffff" d="M 0 0 L 52.003906 0 L 52.003906 52.003906 L 0 52.003906 Z M 0 0 " fill-opacity="1" fill-rule="nonzero"/><path fill="#ffffff" d="M 0 0 L 52.003906 0 L 52.003906 52.003906 L 0 52.003906 Z M 0 0 " fill-opacity="1" fill-rule="nonzero"/></g><g clip-path="url(#07c4df8090)"><path fill="#ffde59" d="M 26.003906 2.042969 C 12.792969 2.042969 2.042969 12.792969 2.042969 26.003906 C 2.042969 39.210938 12.792969 49.960938 26.003906 49.960938 C 39.210938 49.960938 49.960938 39.210938 49.960938 26.003906 C 49.960938 12.792969 39.210938 2.042969 26.003906 2.042969 Z M 38.207031 38.207031 C 37.902344 38.523438 37.488281 38.683594 37.085938 38.683594 C 36.671875 38.683594 36.257812 38.523438 35.953125 38.207031 L 29.4375 31.6875 C 27.535156 33.09375 25.285156 33.8125 23.015625 33.8125 C 20.253906 33.8125 17.488281 32.757812 15.394531 30.652344 C 11.179688 26.449219 11.179688 19.597656 15.394531 15.394531 C 19.597656 11.179688 26.433594 11.179688 30.652344 15.394531 C 34.484375 19.214844 34.820312 25.203125 31.6875 29.4375 L 38.207031 35.953125 C 38.828125 36.578125 38.828125 37.582031 38.207031 38.207031 Z M 38.207031 38.207031 " fill-opacity="1" fill-rule="nonzero"/></g><path fill="#ffde59" d="M 23.015625 15.429688 C 21.082031 15.429688 19.132812 16.164062 17.648438 17.648438 C 14.695312 20.601562 14.695312 25.425781 17.648438 28.398438 C 20.601562 31.351562 25.425781 31.351562 28.398438 28.398438 C 31.351562 25.425781 31.351562 20.601562 28.398438 17.648438 C 26.914062 16.164062 24.964844 15.429688 23.015625 15.429688 Z M 23.015625 15.429688 " fill-opacity="1" fill-rule="nonzero"/></svg>