<svg xmlns="http://www.w3.org/2000/svg" xmlns:xlink="http://www.w3.org/1999/xlink" width="70" zoomAndPan="magnify" viewBox="0 0 52.5 52.499999" height="70" preserveAspectRatio="xMidYMid meet" version="1.0"><defs><clipPath id="f394821ef7"><path d="M 5.816406 11 L 41 11 L 41 45.9375 L 5.816406 45.9375 Z M 5.816406 11 " clip-rule="nonzero"/></clipPath><clipPath id="3645a9f435"><path d="M 32 5.816406 L 45.9375 5.816406 L 45.9375 20 L 32 20 Z M 32 5.816406 " clip-rule="nonzero"/></clipPath></defs><g clip-path="url(#f394821ef7)"><path fill="#ffffff" d="M 30.605469 11.199219 L 8.902344 32.902344 C 8.714844 33.089844 8.582031 33.324219 8.519531 33.582031 L 5.914062 44.34375 C 5.796875 44.832031 5.9375 45.347656 6.296875 45.703125 C 6.566406 45.976562 6.9375 46.125 7.3125 46.125 C 7.425781 46.125 7.539062 46.113281 7.652344 46.082031 L 18.414062 43.476562 C 18.671875 43.417969 18.90625 43.285156 19.09375 43.097656 L 40.796875 21.390625 Z M 30.605469 11.199219 " fill-opacity="1" fill-rule="nonzero"/></g><g clip-path="url(#3645a9f435)"><path fill="#ffffff" d="M 45.296875 12.457031 L 39.539062 6.699219 C 38.90625 6.0625 37.992188 5.769531 37.019531 5.902344 C 36.1875 6.015625 35.375 6.433594 34.730469 7.074219 L 32.644531 9.160156 L 42.835938 19.351562 L 44.925781 17.265625 C 45.566406 16.625 45.980469 15.8125 46.09375 14.976562 C 46.226562 14.011719 45.933594 13.09375 45.296875 12.457031 Z M 45.296875 12.457031 " fill-opacity="1" fill-rule="nonzero"/></g></svg>